<mxfile host="65bd71144e">
    <diagram id="howiEEKu8mYBdMvqvI3_" name="Page-1">
        <mxGraphModel dx="1089" dy="1879" grid="1" gridSize="10" guides="1" tooltips="1" connect="1" arrows="1" fold="1" page="1" pageScale="1" pageWidth="850" pageHeight="1100" math="0" shadow="0">
            <root>
                <mxCell id="0"/>
                <mxCell id="1" parent="0"/>
                <mxCell id="2" value="$4000+&amp;nbsp; &amp;nbsp; -&amp;gt;" style="text;html=1;align=center;verticalAlign=middle;whiteSpace=wrap;rounded=0;" vertex="1" parent="1">
                    <mxGeometry x="10" y="-10" width="90" height="30" as="geometry"/>
                </mxCell>
                <mxCell id="61l52epfFW0N0OmZKZ22-11" value="" style="group" vertex="1" connectable="0" parent="1">
                    <mxGeometry x="40" y="40" width="750" height="840" as="geometry"/>
                </mxCell>
                <mxCell id="4" value="" style="endArrow=none;html=1;strokeWidth=6;" edge="1" parent="61l52epfFW0N0OmZKZ22-11">
                    <mxGeometry width="50" height="50" relative="1" as="geometry">
                        <mxPoint as="sourcePoint"/>
                        <mxPoint x="750" as="targetPoint"/>
                    </mxGeometry>
                </mxCell>
                <mxCell id="5" value="" style="endArrow=none;html=1;strokeWidth=6;" edge="1" parent="61l52epfFW0N0OmZKZ22-11">
                    <mxGeometry width="50" height="50" relative="1" as="geometry">
                        <mxPoint y="120" as="sourcePoint"/>
                        <mxPoint x="750" y="120" as="targetPoint"/>
                    </mxGeometry>
                </mxCell>
                <mxCell id="6" value="" style="endArrow=none;html=1;strokeWidth=6;" edge="1" parent="61l52epfFW0N0OmZKZ22-11">
                    <mxGeometry width="50" height="50" relative="1" as="geometry">
                        <mxPoint y="240" as="sourcePoint"/>
                        <mxPoint x="750" y="240" as="targetPoint"/>
                    </mxGeometry>
                </mxCell>
                <mxCell id="7" value="" style="endArrow=none;html=1;strokeWidth=6;" edge="1" parent="61l52epfFW0N0OmZKZ22-11">
                    <mxGeometry width="50" height="50" relative="1" as="geometry">
                        <mxPoint y="360" as="sourcePoint"/>
                        <mxPoint x="750" y="360" as="targetPoint"/>
                    </mxGeometry>
                </mxCell>
                <mxCell id="8" value="" style="endArrow=none;html=1;strokeWidth=6;" edge="1" parent="61l52epfFW0N0OmZKZ22-11">
                    <mxGeometry width="50" height="50" relative="1" as="geometry">
                        <mxPoint y="480" as="sourcePoint"/>
                        <mxPoint x="750" y="480" as="targetPoint"/>
                    </mxGeometry>
                </mxCell>
                <mxCell id="9" value="" style="endArrow=none;html=1;strokeWidth=6;" edge="1" parent="61l52epfFW0N0OmZKZ22-11">
                    <mxGeometry width="50" height="50" relative="1" as="geometry">
                        <mxPoint y="600" as="sourcePoint"/>
                        <mxPoint x="750" y="600" as="targetPoint"/>
                    </mxGeometry>
                </mxCell>
                <mxCell id="61l52epfFW0N0OmZKZ22-9" value="" style="endArrow=none;html=1;strokeWidth=6;" edge="1" parent="61l52epfFW0N0OmZKZ22-11">
                    <mxGeometry width="50" height="50" relative="1" as="geometry">
                        <mxPoint y="720" as="sourcePoint"/>
                        <mxPoint x="750" y="720" as="targetPoint"/>
                    </mxGeometry>
                </mxCell>
                <mxCell id="61l52epfFW0N0OmZKZ22-10" value="" style="endArrow=none;html=1;strokeWidth=6;" edge="1" parent="61l52epfFW0N0OmZKZ22-11">
                    <mxGeometry width="50" height="50" relative="1" as="geometry">
                        <mxPoint y="840" as="sourcePoint"/>
                        <mxPoint x="750" y="840" as="targetPoint"/>
                    </mxGeometry>
                </mxCell>
                <mxCell id="eszq9rrfKr3GMQfIQBcq-18" value="" style="group" vertex="1" connectable="0" parent="1">
                    <mxGeometry x="40" y="50" width="750" height="840" as="geometry"/>
                </mxCell>
                <mxCell id="eszq9rrfKr3GMQfIQBcq-10" value="" style="endArrow=none;html=1;strokeWidth=6;strokeColor=#FF0000;" edge="1" parent="eszq9rrfKr3GMQfIQBcq-18">
                    <mxGeometry width="50" height="50" relative="1" as="geometry">
                        <mxPoint as="sourcePoint"/>
                        <mxPoint x="750" as="targetPoint"/>
                    </mxGeometry>
                </mxCell>
                <mxCell id="eszq9rrfKr3GMQfIQBcq-11" value="" style="endArrow=none;html=1;strokeWidth=6;strokeColor=#FF0000;" edge="1" parent="eszq9rrfKr3GMQfIQBcq-18">
                    <mxGeometry width="50" height="50" relative="1" as="geometry">
                        <mxPoint y="120" as="sourcePoint"/>
                        <mxPoint x="750" y="120" as="targetPoint"/>
                    </mxGeometry>
                </mxCell>
                <mxCell id="eszq9rrfKr3GMQfIQBcq-12" value="" style="endArrow=none;html=1;strokeWidth=6;strokeColor=#FF0000;" edge="1" parent="eszq9rrfKr3GMQfIQBcq-18">
                    <mxGeometry width="50" height="50" relative="1" as="geometry">
                        <mxPoint y="240" as="sourcePoint"/>
                        <mxPoint x="750" y="240" as="targetPoint"/>
                    </mxGeometry>
                </mxCell>
                <mxCell id="eszq9rrfKr3GMQfIQBcq-13" value="" style="endArrow=none;html=1;strokeWidth=6;strokeColor=#FF0000;" edge="1" parent="eszq9rrfKr3GMQfIQBcq-18">
                    <mxGeometry width="50" height="50" relative="1" as="geometry">
                        <mxPoint y="360" as="sourcePoint"/>
                        <mxPoint x="750" y="360" as="targetPoint"/>
                    </mxGeometry>
                </mxCell>
                <mxCell id="eszq9rrfKr3GMQfIQBcq-14" value="" style="endArrow=none;html=1;strokeWidth=6;strokeColor=#FF0000;" edge="1" parent="eszq9rrfKr3GMQfIQBcq-18">
                    <mxGeometry width="50" height="50" relative="1" as="geometry">
                        <mxPoint y="480" as="sourcePoint"/>
                        <mxPoint x="750" y="480" as="targetPoint"/>
                    </mxGeometry>
                </mxCell>
                <mxCell id="eszq9rrfKr3GMQfIQBcq-15" value="" style="endArrow=none;html=1;strokeWidth=6;strokeColor=#FF0000;" edge="1" parent="eszq9rrfKr3GMQfIQBcq-18">
                    <mxGeometry width="50" height="50" relative="1" as="geometry">
                        <mxPoint y="600" as="sourcePoint"/>
                        <mxPoint x="750" y="600" as="targetPoint"/>
                    </mxGeometry>
                </mxCell>
                <mxCell id="eszq9rrfKr3GMQfIQBcq-16" value="" style="endArrow=none;html=1;strokeWidth=6;strokeColor=#FF0000;" edge="1" parent="eszq9rrfKr3GMQfIQBcq-18">
                    <mxGeometry width="50" height="50" relative="1" as="geometry">
                        <mxPoint y="720" as="sourcePoint"/>
                        <mxPoint x="750" y="720" as="targetPoint"/>
                    </mxGeometry>
                </mxCell>
                <mxCell id="eszq9rrfKr3GMQfIQBcq-17" value="" style="endArrow=none;html=1;strokeWidth=6;strokeColor=#FF0000;" edge="1" parent="eszq9rrfKr3GMQfIQBcq-18">
                    <mxGeometry width="50" height="50" relative="1" as="geometry">
                        <mxPoint y="840" as="sourcePoint"/>
                        <mxPoint x="750" y="840" as="targetPoint"/>
                    </mxGeometry>
                </mxCell>
                <mxCell id="eszq9rrfKr3GMQfIQBcq-28" value="" style="group" vertex="1" connectable="0" parent="1">
                    <mxGeometry x="40" y="60" width="750" height="840" as="geometry"/>
                </mxCell>
                <mxCell id="eszq9rrfKr3GMQfIQBcq-20" value="" style="endArrow=none;html=1;strokeWidth=6;strokeColor=#FFFF33;" edge="1" parent="eszq9rrfKr3GMQfIQBcq-28">
                    <mxGeometry width="50" height="50" relative="1" as="geometry">
                        <mxPoint as="sourcePoint"/>
                        <mxPoint x="750" as="targetPoint"/>
                    </mxGeometry>
                </mxCell>
                <mxCell id="eszq9rrfKr3GMQfIQBcq-21" value="" style="endArrow=none;html=1;strokeWidth=6;strokeColor=#FFFF33;" edge="1" parent="eszq9rrfKr3GMQfIQBcq-28">
                    <mxGeometry width="50" height="50" relative="1" as="geometry">
                        <mxPoint y="120" as="sourcePoint"/>
                        <mxPoint x="750" y="120" as="targetPoint"/>
                    </mxGeometry>
                </mxCell>
                <mxCell id="eszq9rrfKr3GMQfIQBcq-22" value="" style="endArrow=none;html=1;strokeWidth=6;strokeColor=#FFFF33;" edge="1" parent="eszq9rrfKr3GMQfIQBcq-28">
                    <mxGeometry width="50" height="50" relative="1" as="geometry">
                        <mxPoint y="240" as="sourcePoint"/>
                        <mxPoint x="750" y="240" as="targetPoint"/>
                    </mxGeometry>
                </mxCell>
                <mxCell id="eszq9rrfKr3GMQfIQBcq-23" value="" style="endArrow=none;html=1;strokeWidth=6;strokeColor=#FFFF33;" edge="1" parent="eszq9rrfKr3GMQfIQBcq-28">
                    <mxGeometry width="50" height="50" relative="1" as="geometry">
                        <mxPoint y="360" as="sourcePoint"/>
                        <mxPoint x="750" y="360" as="targetPoint"/>
                    </mxGeometry>
                </mxCell>
                <mxCell id="eszq9rrfKr3GMQfIQBcq-24" value="" style="endArrow=none;html=1;strokeWidth=6;strokeColor=#FFFF33;" edge="1" parent="eszq9rrfKr3GMQfIQBcq-28">
                    <mxGeometry width="50" height="50" relative="1" as="geometry">
                        <mxPoint y="480" as="sourcePoint"/>
                        <mxPoint x="750" y="480" as="targetPoint"/>
                    </mxGeometry>
                </mxCell>
                <mxCell id="eszq9rrfKr3GMQfIQBcq-25" value="" style="endArrow=none;html=1;strokeWidth=6;strokeColor=#FFFF33;" edge="1" parent="eszq9rrfKr3GMQfIQBcq-28">
                    <mxGeometry width="50" height="50" relative="1" as="geometry">
                        <mxPoint y="600" as="sourcePoint"/>
                        <mxPoint x="750" y="600" as="targetPoint"/>
                    </mxGeometry>
                </mxCell>
                <mxCell id="eszq9rrfKr3GMQfIQBcq-26" value="" style="endArrow=none;html=1;strokeWidth=6;strokeColor=#FFFF33;" edge="1" parent="eszq9rrfKr3GMQfIQBcq-28">
                    <mxGeometry width="50" height="50" relative="1" as="geometry">
                        <mxPoint y="720" as="sourcePoint"/>
                        <mxPoint x="750" y="720" as="targetPoint"/>
                    </mxGeometry>
                </mxCell>
                <mxCell id="eszq9rrfKr3GMQfIQBcq-27" value="" style="endArrow=none;html=1;strokeWidth=6;strokeColor=#FFFF33;" edge="1" parent="eszq9rrfKr3GMQfIQBcq-28">
                    <mxGeometry width="50" height="50" relative="1" as="geometry">
                        <mxPoint y="840" as="sourcePoint"/>
                        <mxPoint x="750" y="840" as="targetPoint"/>
                    </mxGeometry>
                </mxCell>
                <mxCell id="eszq9rrfKr3GMQfIQBcq-39" value="" style="group" vertex="1" connectable="0" parent="1">
                    <mxGeometry x="40" y="70" width="750" height="840" as="geometry"/>
                </mxCell>
                <mxCell id="eszq9rrfKr3GMQfIQBcq-31" value="" style="endArrow=none;html=1;strokeWidth=6;strokeColor=#00FF00;" edge="1" parent="eszq9rrfKr3GMQfIQBcq-39">
                    <mxGeometry width="50" height="50" relative="1" as="geometry">
                        <mxPoint as="sourcePoint"/>
                        <mxPoint x="750" as="targetPoint"/>
                    </mxGeometry>
                </mxCell>
                <mxCell id="eszq9rrfKr3GMQfIQBcq-32" value="" style="endArrow=none;html=1;strokeWidth=6;strokeColor=#00FF00;" edge="1" parent="eszq9rrfKr3GMQfIQBcq-39">
                    <mxGeometry width="50" height="50" relative="1" as="geometry">
                        <mxPoint y="120" as="sourcePoint"/>
                        <mxPoint x="750" y="120" as="targetPoint"/>
                    </mxGeometry>
                </mxCell>
                <mxCell id="eszq9rrfKr3GMQfIQBcq-33" value="" style="endArrow=none;html=1;strokeWidth=6;strokeColor=#00FF00;" edge="1" parent="eszq9rrfKr3GMQfIQBcq-39">
                    <mxGeometry width="50" height="50" relative="1" as="geometry">
                        <mxPoint y="240" as="sourcePoint"/>
                        <mxPoint x="750" y="240" as="targetPoint"/>
                    </mxGeometry>
                </mxCell>
                <mxCell id="eszq9rrfKr3GMQfIQBcq-34" value="" style="endArrow=none;html=1;strokeWidth=6;strokeColor=#00FF00;" edge="1" parent="eszq9rrfKr3GMQfIQBcq-39">
                    <mxGeometry width="50" height="50" relative="1" as="geometry">
                        <mxPoint y="360" as="sourcePoint"/>
                        <mxPoint x="750" y="360" as="targetPoint"/>
                    </mxGeometry>
                </mxCell>
                <mxCell id="eszq9rrfKr3GMQfIQBcq-35" value="" style="endArrow=none;html=1;strokeWidth=6;strokeColor=#00FF00;" edge="1" parent="eszq9rrfKr3GMQfIQBcq-39">
                    <mxGeometry width="50" height="50" relative="1" as="geometry">
                        <mxPoint y="480" as="sourcePoint"/>
                        <mxPoint x="750" y="480" as="targetPoint"/>
                    </mxGeometry>
                </mxCell>
                <mxCell id="eszq9rrfKr3GMQfIQBcq-36" value="" style="endArrow=none;html=1;strokeWidth=6;strokeColor=#00FF00;" edge="1" parent="eszq9rrfKr3GMQfIQBcq-39">
                    <mxGeometry width="50" height="50" relative="1" as="geometry">
                        <mxPoint y="600" as="sourcePoint"/>
                        <mxPoint x="750" y="600" as="targetPoint"/>
                    </mxGeometry>
                </mxCell>
                <mxCell id="eszq9rrfKr3GMQfIQBcq-37" value="" style="endArrow=none;html=1;strokeWidth=6;strokeColor=#00FF00;" edge="1" parent="eszq9rrfKr3GMQfIQBcq-39">
                    <mxGeometry width="50" height="50" relative="1" as="geometry">
                        <mxPoint y="720" as="sourcePoint"/>
                        <mxPoint x="750" y="720" as="targetPoint"/>
                    </mxGeometry>
                </mxCell>
                <mxCell id="eszq9rrfKr3GMQfIQBcq-38" value="" style="endArrow=none;html=1;strokeWidth=6;strokeColor=#00FF00;" edge="1" parent="eszq9rrfKr3GMQfIQBcq-39">
                    <mxGeometry width="50" height="50" relative="1" as="geometry">
                        <mxPoint y="840" as="sourcePoint"/>
                        <mxPoint x="750" y="840" as="targetPoint"/>
                    </mxGeometry>
                </mxCell>
                <mxCell id="eszq9rrfKr3GMQfIQBcq-50" value="" style="group" vertex="1" connectable="0" parent="1">
                    <mxGeometry x="40" y="80" width="750" height="840" as="geometry"/>
                </mxCell>
                <mxCell id="eszq9rrfKr3GMQfIQBcq-42" value="" style="endArrow=none;html=1;strokeWidth=6;strokeColor=#00FFFF;" edge="1" parent="eszq9rrfKr3GMQfIQBcq-50">
                    <mxGeometry width="50" height="50" relative="1" as="geometry">
                        <mxPoint as="sourcePoint"/>
                        <mxPoint x="750" as="targetPoint"/>
                    </mxGeometry>
                </mxCell>
                <mxCell id="eszq9rrfKr3GMQfIQBcq-43" value="" style="endArrow=none;html=1;strokeWidth=6;strokeColor=#00FFFF;" edge="1" parent="eszq9rrfKr3GMQfIQBcq-50">
                    <mxGeometry width="50" height="50" relative="1" as="geometry">
                        <mxPoint y="120" as="sourcePoint"/>
                        <mxPoint x="750" y="120" as="targetPoint"/>
                    </mxGeometry>
                </mxCell>
                <mxCell id="eszq9rrfKr3GMQfIQBcq-44" value="" style="endArrow=none;html=1;strokeWidth=6;strokeColor=#00FFFF;" edge="1" parent="eszq9rrfKr3GMQfIQBcq-50">
                    <mxGeometry width="50" height="50" relative="1" as="geometry">
                        <mxPoint y="240" as="sourcePoint"/>
                        <mxPoint x="750" y="240" as="targetPoint"/>
                    </mxGeometry>
                </mxCell>
                <mxCell id="eszq9rrfKr3GMQfIQBcq-45" value="" style="endArrow=none;html=1;strokeWidth=6;strokeColor=#00FFFF;" edge="1" parent="eszq9rrfKr3GMQfIQBcq-50">
                    <mxGeometry width="50" height="50" relative="1" as="geometry">
                        <mxPoint y="360" as="sourcePoint"/>
                        <mxPoint x="750" y="360" as="targetPoint"/>
                    </mxGeometry>
                </mxCell>
                <mxCell id="eszq9rrfKr3GMQfIQBcq-46" value="" style="endArrow=none;html=1;strokeWidth=6;strokeColor=#00FFFF;" edge="1" parent="eszq9rrfKr3GMQfIQBcq-50">
                    <mxGeometry width="50" height="50" relative="1" as="geometry">
                        <mxPoint y="480" as="sourcePoint"/>
                        <mxPoint x="750" y="480" as="targetPoint"/>
                    </mxGeometry>
                </mxCell>
                <mxCell id="eszq9rrfKr3GMQfIQBcq-47" value="" style="endArrow=none;html=1;strokeWidth=6;strokeColor=#00FFFF;" edge="1" parent="eszq9rrfKr3GMQfIQBcq-50">
                    <mxGeometry width="50" height="50" relative="1" as="geometry">
                        <mxPoint y="600" as="sourcePoint"/>
                        <mxPoint x="750" y="600" as="targetPoint"/>
                    </mxGeometry>
                </mxCell>
                <mxCell id="eszq9rrfKr3GMQfIQBcq-48" value="" style="endArrow=none;html=1;strokeWidth=6;strokeColor=#00FFFF;" edge="1" parent="eszq9rrfKr3GMQfIQBcq-50">
                    <mxGeometry width="50" height="50" relative="1" as="geometry">
                        <mxPoint y="720" as="sourcePoint"/>
                        <mxPoint x="750" y="720" as="targetPoint"/>
                    </mxGeometry>
                </mxCell>
                <mxCell id="eszq9rrfKr3GMQfIQBcq-49" value="" style="endArrow=none;html=1;strokeWidth=6;strokeColor=#00FFFF;" edge="1" parent="eszq9rrfKr3GMQfIQBcq-50">
                    <mxGeometry width="50" height="50" relative="1" as="geometry">
                        <mxPoint y="840" as="sourcePoint"/>
                        <mxPoint x="750" y="840" as="targetPoint"/>
                    </mxGeometry>
                </mxCell>
                <mxCell id="eszq9rrfKr3GMQfIQBcq-60" value="" style="group" vertex="1" connectable="0" parent="1">
                    <mxGeometry x="40" y="90" width="750" height="840" as="geometry"/>
                </mxCell>
                <mxCell id="eszq9rrfKr3GMQfIQBcq-52" value="" style="endArrow=none;html=1;strokeWidth=6;strokeColor=#0000FF;" edge="1" parent="eszq9rrfKr3GMQfIQBcq-60">
                    <mxGeometry width="50" height="50" relative="1" as="geometry">
                        <mxPoint as="sourcePoint"/>
                        <mxPoint x="750" as="targetPoint"/>
                    </mxGeometry>
                </mxCell>
                <mxCell id="eszq9rrfKr3GMQfIQBcq-53" value="" style="endArrow=none;html=1;strokeWidth=6;strokeColor=#0000FF;" edge="1" parent="eszq9rrfKr3GMQfIQBcq-60">
                    <mxGeometry width="50" height="50" relative="1" as="geometry">
                        <mxPoint y="120" as="sourcePoint"/>
                        <mxPoint x="750" y="120" as="targetPoint"/>
                    </mxGeometry>
                </mxCell>
                <mxCell id="eszq9rrfKr3GMQfIQBcq-54" value="" style="endArrow=none;html=1;strokeWidth=6;strokeColor=#0000FF;" edge="1" parent="eszq9rrfKr3GMQfIQBcq-60">
                    <mxGeometry width="50" height="50" relative="1" as="geometry">
                        <mxPoint y="240" as="sourcePoint"/>
                        <mxPoint x="750" y="240" as="targetPoint"/>
                    </mxGeometry>
                </mxCell>
                <mxCell id="eszq9rrfKr3GMQfIQBcq-55" value="" style="endArrow=none;html=1;strokeWidth=6;strokeColor=#0000FF;" edge="1" parent="eszq9rrfKr3GMQfIQBcq-60">
                    <mxGeometry width="50" height="50" relative="1" as="geometry">
                        <mxPoint y="360" as="sourcePoint"/>
                        <mxPoint x="750" y="360" as="targetPoint"/>
                    </mxGeometry>
                </mxCell>
                <mxCell id="eszq9rrfKr3GMQfIQBcq-56" value="" style="endArrow=none;html=1;strokeWidth=6;strokeColor=#0000FF;" edge="1" parent="eszq9rrfKr3GMQfIQBcq-60">
                    <mxGeometry width="50" height="50" relative="1" as="geometry">
                        <mxPoint y="480" as="sourcePoint"/>
                        <mxPoint x="750" y="480" as="targetPoint"/>
                    </mxGeometry>
                </mxCell>
                <mxCell id="eszq9rrfKr3GMQfIQBcq-57" value="" style="endArrow=none;html=1;strokeWidth=6;strokeColor=#0000FF;" edge="1" parent="eszq9rrfKr3GMQfIQBcq-60">
                    <mxGeometry width="50" height="50" relative="1" as="geometry">
                        <mxPoint y="600" as="sourcePoint"/>
                        <mxPoint x="750" y="600" as="targetPoint"/>
                    </mxGeometry>
                </mxCell>
                <mxCell id="eszq9rrfKr3GMQfIQBcq-58" value="" style="endArrow=none;html=1;strokeWidth=6;strokeColor=#0000FF;" edge="1" parent="eszq9rrfKr3GMQfIQBcq-60">
                    <mxGeometry width="50" height="50" relative="1" as="geometry">
                        <mxPoint y="720" as="sourcePoint"/>
                        <mxPoint x="750" y="720" as="targetPoint"/>
                    </mxGeometry>
                </mxCell>
                <mxCell id="eszq9rrfKr3GMQfIQBcq-59" value="" style="endArrow=none;html=1;strokeWidth=6;strokeColor=#0000FF;" edge="1" parent="eszq9rrfKr3GMQfIQBcq-60">
                    <mxGeometry width="50" height="50" relative="1" as="geometry">
                        <mxPoint y="840" as="sourcePoint"/>
                        <mxPoint x="750" y="840" as="targetPoint"/>
                    </mxGeometry>
                </mxCell>
                <mxCell id="eszq9rrfKr3GMQfIQBcq-70" value="" style="group" vertex="1" connectable="0" parent="1">
                    <mxGeometry x="40" y="100" width="750" height="840" as="geometry"/>
                </mxCell>
                <mxCell id="eszq9rrfKr3GMQfIQBcq-62" value="" style="endArrow=none;html=1;strokeWidth=6;strokeColor=#7F00FF;" edge="1" parent="eszq9rrfKr3GMQfIQBcq-70">
                    <mxGeometry width="50" height="50" relative="1" as="geometry">
                        <mxPoint as="sourcePoint"/>
                        <mxPoint x="750" as="targetPoint"/>
                    </mxGeometry>
                </mxCell>
                <mxCell id="eszq9rrfKr3GMQfIQBcq-63" value="" style="endArrow=none;html=1;strokeWidth=6;strokeColor=#7F00FF;" edge="1" parent="eszq9rrfKr3GMQfIQBcq-70">
                    <mxGeometry width="50" height="50" relative="1" as="geometry">
                        <mxPoint y="120" as="sourcePoint"/>
                        <mxPoint x="750" y="120" as="targetPoint"/>
                    </mxGeometry>
                </mxCell>
                <mxCell id="eszq9rrfKr3GMQfIQBcq-64" value="" style="endArrow=none;html=1;strokeWidth=6;strokeColor=#7F00FF;" edge="1" parent="eszq9rrfKr3GMQfIQBcq-70">
                    <mxGeometry width="50" height="50" relative="1" as="geometry">
                        <mxPoint y="240" as="sourcePoint"/>
                        <mxPoint x="750" y="240" as="targetPoint"/>
                    </mxGeometry>
                </mxCell>
                <mxCell id="eszq9rrfKr3GMQfIQBcq-65" value="" style="endArrow=none;html=1;strokeWidth=6;strokeColor=#7F00FF;" edge="1" parent="eszq9rrfKr3GMQfIQBcq-70">
                    <mxGeometry width="50" height="50" relative="1" as="geometry">
                        <mxPoint y="360" as="sourcePoint"/>
                        <mxPoint x="750" y="360" as="targetPoint"/>
                    </mxGeometry>
                </mxCell>
                <mxCell id="eszq9rrfKr3GMQfIQBcq-66" value="" style="endArrow=none;html=1;strokeWidth=6;strokeColor=#7F00FF;" edge="1" parent="eszq9rrfKr3GMQfIQBcq-70">
                    <mxGeometry width="50" height="50" relative="1" as="geometry">
                        <mxPoint y="480" as="sourcePoint"/>
                        <mxPoint x="750" y="480" as="targetPoint"/>
                    </mxGeometry>
                </mxCell>
                <mxCell id="eszq9rrfKr3GMQfIQBcq-67" value="" style="endArrow=none;html=1;strokeWidth=6;strokeColor=#7F00FF;" edge="1" parent="eszq9rrfKr3GMQfIQBcq-70">
                    <mxGeometry width="50" height="50" relative="1" as="geometry">
                        <mxPoint y="600" as="sourcePoint"/>
                        <mxPoint x="750" y="600" as="targetPoint"/>
                    </mxGeometry>
                </mxCell>
                <mxCell id="eszq9rrfKr3GMQfIQBcq-68" value="" style="endArrow=none;html=1;strokeWidth=6;strokeColor=#7F00FF;" edge="1" parent="eszq9rrfKr3GMQfIQBcq-70">
                    <mxGeometry width="50" height="50" relative="1" as="geometry">
                        <mxPoint y="720" as="sourcePoint"/>
                        <mxPoint x="750" y="720" as="targetPoint"/>
                    </mxGeometry>
                </mxCell>
                <mxCell id="eszq9rrfKr3GMQfIQBcq-69" value="" style="endArrow=none;html=1;strokeWidth=6;strokeColor=#7F00FF;" edge="1" parent="eszq9rrfKr3GMQfIQBcq-70">
                    <mxGeometry width="50" height="50" relative="1" as="geometry">
                        <mxPoint y="840" as="sourcePoint"/>
                        <mxPoint x="750" y="840" as="targetPoint"/>
                    </mxGeometry>
                </mxCell>
                <mxCell id="eszq9rrfKr3GMQfIQBcq-80" value="" style="group" vertex="1" connectable="0" parent="1">
                    <mxGeometry x="40" y="110" width="750" height="840" as="geometry"/>
                </mxCell>
                <mxCell id="eszq9rrfKr3GMQfIQBcq-72" value="" style="endArrow=none;html=1;strokeWidth=6;strokeColor=#FF8000;" edge="1" parent="eszq9rrfKr3GMQfIQBcq-80">
                    <mxGeometry width="50" height="50" relative="1" as="geometry">
                        <mxPoint as="sourcePoint"/>
                        <mxPoint x="750" as="targetPoint"/>
                    </mxGeometry>
                </mxCell>
                <mxCell id="eszq9rrfKr3GMQfIQBcq-73" value="" style="endArrow=none;html=1;strokeWidth=6;strokeColor=#FF8000;" edge="1" parent="eszq9rrfKr3GMQfIQBcq-80">
                    <mxGeometry width="50" height="50" relative="1" as="geometry">
                        <mxPoint y="120" as="sourcePoint"/>
                        <mxPoint x="750" y="120" as="targetPoint"/>
                    </mxGeometry>
                </mxCell>
                <mxCell id="eszq9rrfKr3GMQfIQBcq-74" value="" style="endArrow=none;html=1;strokeWidth=6;strokeColor=#FF8000;" edge="1" parent="eszq9rrfKr3GMQfIQBcq-80">
                    <mxGeometry width="50" height="50" relative="1" as="geometry">
                        <mxPoint y="240" as="sourcePoint"/>
                        <mxPoint x="750" y="240" as="targetPoint"/>
                    </mxGeometry>
                </mxCell>
                <mxCell id="eszq9rrfKr3GMQfIQBcq-75" value="" style="endArrow=none;html=1;strokeWidth=6;strokeColor=#FF8000;" edge="1" parent="eszq9rrfKr3GMQfIQBcq-80">
                    <mxGeometry width="50" height="50" relative="1" as="geometry">
                        <mxPoint y="360" as="sourcePoint"/>
                        <mxPoint x="750" y="360" as="targetPoint"/>
                    </mxGeometry>
                </mxCell>
                <mxCell id="eszq9rrfKr3GMQfIQBcq-76" value="" style="endArrow=none;html=1;strokeWidth=6;strokeColor=#FF8000;" edge="1" parent="eszq9rrfKr3GMQfIQBcq-80">
                    <mxGeometry width="50" height="50" relative="1" as="geometry">
                        <mxPoint y="480" as="sourcePoint"/>
                        <mxPoint x="750" y="480" as="targetPoint"/>
                    </mxGeometry>
                </mxCell>
                <mxCell id="eszq9rrfKr3GMQfIQBcq-77" value="" style="endArrow=none;html=1;strokeWidth=6;strokeColor=#FF8000;" edge="1" parent="eszq9rrfKr3GMQfIQBcq-80">
                    <mxGeometry width="50" height="50" relative="1" as="geometry">
                        <mxPoint y="600" as="sourcePoint"/>
                        <mxPoint x="750" y="600" as="targetPoint"/>
                    </mxGeometry>
                </mxCell>
                <mxCell id="eszq9rrfKr3GMQfIQBcq-78" value="" style="endArrow=none;html=1;strokeWidth=6;strokeColor=#FF8000;" edge="1" parent="eszq9rrfKr3GMQfIQBcq-80">
                    <mxGeometry width="50" height="50" relative="1" as="geometry">
                        <mxPoint y="720" as="sourcePoint"/>
                        <mxPoint x="750" y="720" as="targetPoint"/>
                    </mxGeometry>
                </mxCell>
                <mxCell id="eszq9rrfKr3GMQfIQBcq-79" value="" style="endArrow=none;html=1;strokeWidth=6;strokeColor=#FF8000;" edge="1" parent="eszq9rrfKr3GMQfIQBcq-80">
                    <mxGeometry width="50" height="50" relative="1" as="geometry">
                        <mxPoint y="840" as="sourcePoint"/>
                        <mxPoint x="750" y="840" as="targetPoint"/>
                    </mxGeometry>
                </mxCell>
            </root>
        </mxGraphModel>
    </diagram>
    <diagram id="jrsdqUs-IHdBvuXhgi-4" name="Page-2">
        <mxGraphModel dx="1089" dy="779" grid="1" gridSize="10" guides="1" tooltips="1" connect="1" arrows="1" fold="1" page="1" pageScale="1" pageWidth="850" pageHeight="1100" math="0" shadow="0">
            <root>
                <mxCell id="0"/>
                <mxCell id="1" parent="0"/>
                <mxCell id="cNykDDTKviDpeQw5I6dB-1" value="" style="rounded=0;whiteSpace=wrap;html=1;fillColor=#fff2cc;strokeColor=#d6b656;" vertex="1" parent="1">
                    <mxGeometry x="40" y="40" width="750" height="210" as="geometry"/>
                </mxCell>
                <mxCell id="cNykDDTKviDpeQw5I6dB-2" value="" style="rounded=0;whiteSpace=wrap;html=1;fillColor=#e1d5e7;strokeColor=#9673a6;" vertex="1" parent="1">
                    <mxGeometry x="40" y="250" width="750" height="210" as="geometry"/>
                </mxCell>
                <mxCell id="cNykDDTKviDpeQw5I6dB-3" value="" style="rounded=0;whiteSpace=wrap;html=1;fillColor=#d5e8d4;strokeColor=#82b366;" vertex="1" parent="1">
                    <mxGeometry x="40" y="460" width="750" height="210" as="geometry"/>
                </mxCell>
                <mxCell id="Q3kEKYwl1XiqAEYeXQm6-73" value="" style="group" vertex="1" connectable="0" parent="1">
                    <mxGeometry x="40" y="40" width="750" height="210" as="geometry"/>
                </mxCell>
                <mxCell id="Q3kEKYwl1XiqAEYeXQm6-1" value="" style="group" vertex="1" connectable="0" parent="Q3kEKYwl1XiqAEYeXQm6-73">
                    <mxGeometry width="750" height="193.84615384615387" as="geometry"/>
                </mxCell>
                <mxCell id="Q3kEKYwl1XiqAEYeXQm6-2" value="" style="endArrow=none;html=1;strokeWidth=6;" edge="1" parent="Q3kEKYwl1XiqAEYeXQm6-1">
                    <mxGeometry width="50" height="50" relative="1" as="geometry">
                        <mxPoint as="sourcePoint"/>
                        <mxPoint x="750" as="targetPoint"/>
                    </mxGeometry>
                </mxCell>
                <mxCell id="Q3kEKYwl1XiqAEYeXQm6-3" value="" style="endArrow=none;html=1;strokeWidth=6;" edge="1" parent="Q3kEKYwl1XiqAEYeXQm6-1">
                    <mxGeometry width="50" height="50" relative="1" as="geometry">
                        <mxPoint y="27.692307692307693" as="sourcePoint"/>
                        <mxPoint x="750" y="27.692307692307693" as="targetPoint"/>
                    </mxGeometry>
                </mxCell>
                <mxCell id="Q3kEKYwl1XiqAEYeXQm6-4" value="" style="endArrow=none;html=1;strokeWidth=6;" edge="1" parent="Q3kEKYwl1XiqAEYeXQm6-1">
                    <mxGeometry width="50" height="50" relative="1" as="geometry">
                        <mxPoint y="55.38461538461539" as="sourcePoint"/>
                        <mxPoint x="750" y="55.38461538461539" as="targetPoint"/>
                    </mxGeometry>
                </mxCell>
                <mxCell id="Q3kEKYwl1XiqAEYeXQm6-5" value="" style="endArrow=none;html=1;strokeWidth=6;" edge="1" parent="Q3kEKYwl1XiqAEYeXQm6-1">
                    <mxGeometry width="50" height="50" relative="1" as="geometry">
                        <mxPoint y="83.0769230769231" as="sourcePoint"/>
                        <mxPoint x="750" y="83.0769230769231" as="targetPoint"/>
                    </mxGeometry>
                </mxCell>
                <mxCell id="Q3kEKYwl1XiqAEYeXQm6-6" value="" style="endArrow=none;html=1;strokeWidth=6;" edge="1" parent="Q3kEKYwl1XiqAEYeXQm6-1">
                    <mxGeometry width="50" height="50" relative="1" as="geometry">
                        <mxPoint y="110.76923076923077" as="sourcePoint"/>
                        <mxPoint x="750" y="110.76923076923077" as="targetPoint"/>
                    </mxGeometry>
                </mxCell>
                <mxCell id="Q3kEKYwl1XiqAEYeXQm6-7" value="" style="endArrow=none;html=1;strokeWidth=6;" edge="1" parent="Q3kEKYwl1XiqAEYeXQm6-1">
                    <mxGeometry width="50" height="50" relative="1" as="geometry">
                        <mxPoint y="138.46153846153848" as="sourcePoint"/>
                        <mxPoint x="750" y="138.46153846153848" as="targetPoint"/>
                    </mxGeometry>
                </mxCell>
                <mxCell id="Q3kEKYwl1XiqAEYeXQm6-8" value="" style="endArrow=none;html=1;strokeWidth=6;" edge="1" parent="Q3kEKYwl1XiqAEYeXQm6-1">
                    <mxGeometry width="50" height="50" relative="1" as="geometry">
                        <mxPoint y="166.1538461538462" as="sourcePoint"/>
                        <mxPoint x="750" y="166.1538461538462" as="targetPoint"/>
                    </mxGeometry>
                </mxCell>
                <mxCell id="Q3kEKYwl1XiqAEYeXQm6-9" value="" style="endArrow=none;html=1;strokeWidth=6;" edge="1" parent="Q3kEKYwl1XiqAEYeXQm6-1">
                    <mxGeometry width="50" height="50" relative="1" as="geometry">
                        <mxPoint y="193.84615384615387" as="sourcePoint"/>
                        <mxPoint x="750" y="193.84615384615387" as="targetPoint"/>
                    </mxGeometry>
                </mxCell>
                <mxCell id="Q3kEKYwl1XiqAEYeXQm6-10" value="" style="group" vertex="1" connectable="0" parent="Q3kEKYwl1XiqAEYeXQm6-73">
                    <mxGeometry y="2.307692307692308" width="750" height="193.84615384615387" as="geometry"/>
                </mxCell>
                <mxCell id="Q3kEKYwl1XiqAEYeXQm6-11" value="" style="endArrow=none;html=1;strokeWidth=6;strokeColor=#FF0000;" edge="1" parent="Q3kEKYwl1XiqAEYeXQm6-10">
                    <mxGeometry width="50" height="50" relative="1" as="geometry">
                        <mxPoint as="sourcePoint"/>
                        <mxPoint x="750" as="targetPoint"/>
                    </mxGeometry>
                </mxCell>
                <mxCell id="Q3kEKYwl1XiqAEYeXQm6-12" value="" style="endArrow=none;html=1;strokeWidth=6;strokeColor=#FF0000;" edge="1" parent="Q3kEKYwl1XiqAEYeXQm6-10">
                    <mxGeometry width="50" height="50" relative="1" as="geometry">
                        <mxPoint y="27.692307692307693" as="sourcePoint"/>
                        <mxPoint x="750" y="27.692307692307693" as="targetPoint"/>
                    </mxGeometry>
                </mxCell>
                <mxCell id="Q3kEKYwl1XiqAEYeXQm6-13" value="" style="endArrow=none;html=1;strokeWidth=6;strokeColor=#FF0000;" edge="1" parent="Q3kEKYwl1XiqAEYeXQm6-10">
                    <mxGeometry width="50" height="50" relative="1" as="geometry">
                        <mxPoint y="55.38461538461539" as="sourcePoint"/>
                        <mxPoint x="750" y="55.38461538461539" as="targetPoint"/>
                    </mxGeometry>
                </mxCell>
                <mxCell id="Q3kEKYwl1XiqAEYeXQm6-14" value="" style="endArrow=none;html=1;strokeWidth=6;strokeColor=#FF0000;" edge="1" parent="Q3kEKYwl1XiqAEYeXQm6-10">
                    <mxGeometry width="50" height="50" relative="1" as="geometry">
                        <mxPoint y="83.0769230769231" as="sourcePoint"/>
                        <mxPoint x="750" y="83.0769230769231" as="targetPoint"/>
                    </mxGeometry>
                </mxCell>
                <mxCell id="Q3kEKYwl1XiqAEYeXQm6-15" value="" style="endArrow=none;html=1;strokeWidth=6;strokeColor=#FF0000;" edge="1" parent="Q3kEKYwl1XiqAEYeXQm6-10">
                    <mxGeometry width="50" height="50" relative="1" as="geometry">
                        <mxPoint y="110.76923076923077" as="sourcePoint"/>
                        <mxPoint x="750" y="110.76923076923077" as="targetPoint"/>
                    </mxGeometry>
                </mxCell>
                <mxCell id="Q3kEKYwl1XiqAEYeXQm6-16" value="" style="endArrow=none;html=1;strokeWidth=6;strokeColor=#FF0000;" edge="1" parent="Q3kEKYwl1XiqAEYeXQm6-10">
                    <mxGeometry width="50" height="50" relative="1" as="geometry">
                        <mxPoint y="138.46153846153848" as="sourcePoint"/>
                        <mxPoint x="750" y="138.46153846153848" as="targetPoint"/>
                    </mxGeometry>
                </mxCell>
                <mxCell id="Q3kEKYwl1XiqAEYeXQm6-17" value="" style="endArrow=none;html=1;strokeWidth=6;strokeColor=#FF0000;" edge="1" parent="Q3kEKYwl1XiqAEYeXQm6-10">
                    <mxGeometry width="50" height="50" relative="1" as="geometry">
                        <mxPoint y="166.1538461538462" as="sourcePoint"/>
                        <mxPoint x="750" y="166.1538461538462" as="targetPoint"/>
                    </mxGeometry>
                </mxCell>
                <mxCell id="Q3kEKYwl1XiqAEYeXQm6-18" value="" style="endArrow=none;html=1;strokeWidth=6;strokeColor=#FF0000;" edge="1" parent="Q3kEKYwl1XiqAEYeXQm6-10">
                    <mxGeometry width="50" height="50" relative="1" as="geometry">
                        <mxPoint y="193.84615384615387" as="sourcePoint"/>
                        <mxPoint x="750" y="193.84615384615387" as="targetPoint"/>
                    </mxGeometry>
                </mxCell>
                <mxCell id="Q3kEKYwl1XiqAEYeXQm6-19" value="" style="group" vertex="1" connectable="0" parent="Q3kEKYwl1XiqAEYeXQm6-73">
                    <mxGeometry y="4.615384615384616" width="750" height="193.84615384615387" as="geometry"/>
                </mxCell>
                <mxCell id="Q3kEKYwl1XiqAEYeXQm6-20" value="" style="endArrow=none;html=1;strokeWidth=6;strokeColor=#FFFF33;" edge="1" parent="Q3kEKYwl1XiqAEYeXQm6-19">
                    <mxGeometry width="50" height="50" relative="1" as="geometry">
                        <mxPoint as="sourcePoint"/>
                        <mxPoint x="750" as="targetPoint"/>
                    </mxGeometry>
                </mxCell>
                <mxCell id="Q3kEKYwl1XiqAEYeXQm6-21" value="" style="endArrow=none;html=1;strokeWidth=6;strokeColor=#FFFF33;" edge="1" parent="Q3kEKYwl1XiqAEYeXQm6-19">
                    <mxGeometry width="50" height="50" relative="1" as="geometry">
                        <mxPoint y="27.692307692307693" as="sourcePoint"/>
                        <mxPoint x="750" y="27.692307692307693" as="targetPoint"/>
                    </mxGeometry>
                </mxCell>
                <mxCell id="Q3kEKYwl1XiqAEYeXQm6-22" value="" style="endArrow=none;html=1;strokeWidth=6;strokeColor=#FFFF33;" edge="1" parent="Q3kEKYwl1XiqAEYeXQm6-19">
                    <mxGeometry width="50" height="50" relative="1" as="geometry">
                        <mxPoint y="55.38461538461539" as="sourcePoint"/>
                        <mxPoint x="750" y="55.38461538461539" as="targetPoint"/>
                    </mxGeometry>
                </mxCell>
                <mxCell id="Q3kEKYwl1XiqAEYeXQm6-23" value="" style="endArrow=none;html=1;strokeWidth=6;strokeColor=#FFFF33;" edge="1" parent="Q3kEKYwl1XiqAEYeXQm6-19">
                    <mxGeometry width="50" height="50" relative="1" as="geometry">
                        <mxPoint y="83.0769230769231" as="sourcePoint"/>
                        <mxPoint x="750" y="83.0769230769231" as="targetPoint"/>
                    </mxGeometry>
                </mxCell>
                <mxCell id="Q3kEKYwl1XiqAEYeXQm6-24" value="" style="endArrow=none;html=1;strokeWidth=6;strokeColor=#FFFF33;" edge="1" parent="Q3kEKYwl1XiqAEYeXQm6-19">
                    <mxGeometry width="50" height="50" relative="1" as="geometry">
                        <mxPoint y="110.76923076923077" as="sourcePoint"/>
                        <mxPoint x="750" y="110.76923076923077" as="targetPoint"/>
                    </mxGeometry>
                </mxCell>
                <mxCell id="Q3kEKYwl1XiqAEYeXQm6-25" value="" style="endArrow=none;html=1;strokeWidth=6;strokeColor=#FFFF33;" edge="1" parent="Q3kEKYwl1XiqAEYeXQm6-19">
                    <mxGeometry width="50" height="50" relative="1" as="geometry">
                        <mxPoint y="138.46153846153848" as="sourcePoint"/>
                        <mxPoint x="750" y="138.46153846153848" as="targetPoint"/>
                    </mxGeometry>
                </mxCell>
                <mxCell id="Q3kEKYwl1XiqAEYeXQm6-26" value="" style="endArrow=none;html=1;strokeWidth=6;strokeColor=#FFFF33;" edge="1" parent="Q3kEKYwl1XiqAEYeXQm6-19">
                    <mxGeometry width="50" height="50" relative="1" as="geometry">
                        <mxPoint y="166.1538461538462" as="sourcePoint"/>
                        <mxPoint x="750" y="166.1538461538462" as="targetPoint"/>
                    </mxGeometry>
                </mxCell>
                <mxCell id="Q3kEKYwl1XiqAEYeXQm6-27" value="" style="endArrow=none;html=1;strokeWidth=6;strokeColor=#FFFF33;" edge="1" parent="Q3kEKYwl1XiqAEYeXQm6-19">
                    <mxGeometry width="50" height="50" relative="1" as="geometry">
                        <mxPoint y="193.84615384615387" as="sourcePoint"/>
                        <mxPoint x="750" y="193.84615384615387" as="targetPoint"/>
                    </mxGeometry>
                </mxCell>
                <mxCell id="Q3kEKYwl1XiqAEYeXQm6-28" value="" style="group" vertex="1" connectable="0" parent="Q3kEKYwl1XiqAEYeXQm6-73">
                    <mxGeometry y="6.923076923076923" width="750" height="193.84615384615387" as="geometry"/>
                </mxCell>
                <mxCell id="Q3kEKYwl1XiqAEYeXQm6-29" value="" style="endArrow=none;html=1;strokeWidth=6;strokeColor=#00FF00;" edge="1" parent="Q3kEKYwl1XiqAEYeXQm6-28">
                    <mxGeometry width="50" height="50" relative="1" as="geometry">
                        <mxPoint as="sourcePoint"/>
                        <mxPoint x="750" as="targetPoint"/>
                    </mxGeometry>
                </mxCell>
                <mxCell id="Q3kEKYwl1XiqAEYeXQm6-30" value="" style="endArrow=none;html=1;strokeWidth=6;strokeColor=#00FF00;" edge="1" parent="Q3kEKYwl1XiqAEYeXQm6-28">
                    <mxGeometry width="50" height="50" relative="1" as="geometry">
                        <mxPoint y="27.692307692307693" as="sourcePoint"/>
                        <mxPoint x="750" y="27.692307692307693" as="targetPoint"/>
                    </mxGeometry>
                </mxCell>
                <mxCell id="Q3kEKYwl1XiqAEYeXQm6-31" value="" style="endArrow=none;html=1;strokeWidth=6;strokeColor=#00FF00;" edge="1" parent="Q3kEKYwl1XiqAEYeXQm6-28">
                    <mxGeometry width="50" height="50" relative="1" as="geometry">
                        <mxPoint y="55.38461538461539" as="sourcePoint"/>
                        <mxPoint x="750" y="55.38461538461539" as="targetPoint"/>
                    </mxGeometry>
                </mxCell>
                <mxCell id="Q3kEKYwl1XiqAEYeXQm6-32" value="" style="endArrow=none;html=1;strokeWidth=6;strokeColor=#00FF00;" edge="1" parent="Q3kEKYwl1XiqAEYeXQm6-28">
                    <mxGeometry width="50" height="50" relative="1" as="geometry">
                        <mxPoint y="83.0769230769231" as="sourcePoint"/>
                        <mxPoint x="750" y="83.0769230769231" as="targetPoint"/>
                    </mxGeometry>
                </mxCell>
                <mxCell id="Q3kEKYwl1XiqAEYeXQm6-33" value="" style="endArrow=none;html=1;strokeWidth=6;strokeColor=#00FF00;" edge="1" parent="Q3kEKYwl1XiqAEYeXQm6-28">
                    <mxGeometry width="50" height="50" relative="1" as="geometry">
                        <mxPoint y="110.76923076923077" as="sourcePoint"/>
                        <mxPoint x="750" y="110.76923076923077" as="targetPoint"/>
                    </mxGeometry>
                </mxCell>
                <mxCell id="Q3kEKYwl1XiqAEYeXQm6-34" value="" style="endArrow=none;html=1;strokeWidth=6;strokeColor=#00FF00;" edge="1" parent="Q3kEKYwl1XiqAEYeXQm6-28">
                    <mxGeometry width="50" height="50" relative="1" as="geometry">
                        <mxPoint y="138.46153846153848" as="sourcePoint"/>
                        <mxPoint x="750" y="138.46153846153848" as="targetPoint"/>
                    </mxGeometry>
                </mxCell>
                <mxCell id="Q3kEKYwl1XiqAEYeXQm6-35" value="" style="endArrow=none;html=1;strokeWidth=6;strokeColor=#00FF00;" edge="1" parent="Q3kEKYwl1XiqAEYeXQm6-28">
                    <mxGeometry width="50" height="50" relative="1" as="geometry">
                        <mxPoint y="166.1538461538462" as="sourcePoint"/>
                        <mxPoint x="750" y="166.1538461538462" as="targetPoint"/>
                    </mxGeometry>
                </mxCell>
                <mxCell id="Q3kEKYwl1XiqAEYeXQm6-36" value="" style="endArrow=none;html=1;strokeWidth=6;strokeColor=#00FF00;" edge="1" parent="Q3kEKYwl1XiqAEYeXQm6-28">
                    <mxGeometry width="50" height="50" relative="1" as="geometry">
                        <mxPoint y="193.84615384615387" as="sourcePoint"/>
                        <mxPoint x="750" y="193.84615384615387" as="targetPoint"/>
                    </mxGeometry>
                </mxCell>
                <mxCell id="Q3kEKYwl1XiqAEYeXQm6-37" value="" style="group" vertex="1" connectable="0" parent="Q3kEKYwl1XiqAEYeXQm6-73">
                    <mxGeometry y="9.230769230769232" width="750" height="193.84615384615387" as="geometry"/>
                </mxCell>
                <mxCell id="Q3kEKYwl1XiqAEYeXQm6-38" value="" style="endArrow=none;html=1;strokeWidth=6;strokeColor=#00FFFF;" edge="1" parent="Q3kEKYwl1XiqAEYeXQm6-37">
                    <mxGeometry width="50" height="50" relative="1" as="geometry">
                        <mxPoint as="sourcePoint"/>
                        <mxPoint x="750" as="targetPoint"/>
                    </mxGeometry>
                </mxCell>
                <mxCell id="Q3kEKYwl1XiqAEYeXQm6-39" value="" style="endArrow=none;html=1;strokeWidth=6;strokeColor=#00FFFF;" edge="1" parent="Q3kEKYwl1XiqAEYeXQm6-37">
                    <mxGeometry width="50" height="50" relative="1" as="geometry">
                        <mxPoint y="27.692307692307693" as="sourcePoint"/>
                        <mxPoint x="750" y="27.692307692307693" as="targetPoint"/>
                    </mxGeometry>
                </mxCell>
                <mxCell id="Q3kEKYwl1XiqAEYeXQm6-40" value="" style="endArrow=none;html=1;strokeWidth=6;strokeColor=#00FFFF;" edge="1" parent="Q3kEKYwl1XiqAEYeXQm6-37">
                    <mxGeometry width="50" height="50" relative="1" as="geometry">
                        <mxPoint y="55.38461538461539" as="sourcePoint"/>
                        <mxPoint x="750" y="55.38461538461539" as="targetPoint"/>
                    </mxGeometry>
                </mxCell>
                <mxCell id="Q3kEKYwl1XiqAEYeXQm6-41" value="" style="endArrow=none;html=1;strokeWidth=6;strokeColor=#00FFFF;" edge="1" parent="Q3kEKYwl1XiqAEYeXQm6-37">
                    <mxGeometry width="50" height="50" relative="1" as="geometry">
                        <mxPoint y="83.0769230769231" as="sourcePoint"/>
                        <mxPoint x="750" y="83.0769230769231" as="targetPoint"/>
                    </mxGeometry>
                </mxCell>
                <mxCell id="Q3kEKYwl1XiqAEYeXQm6-42" value="" style="endArrow=none;html=1;strokeWidth=6;strokeColor=#00FFFF;" edge="1" parent="Q3kEKYwl1XiqAEYeXQm6-37">
                    <mxGeometry width="50" height="50" relative="1" as="geometry">
                        <mxPoint y="110.76923076923077" as="sourcePoint"/>
                        <mxPoint x="750" y="110.76923076923077" as="targetPoint"/>
                    </mxGeometry>
                </mxCell>
                <mxCell id="Q3kEKYwl1XiqAEYeXQm6-43" value="" style="endArrow=none;html=1;strokeWidth=6;strokeColor=#00FFFF;" edge="1" parent="Q3kEKYwl1XiqAEYeXQm6-37">
                    <mxGeometry width="50" height="50" relative="1" as="geometry">
                        <mxPoint y="138.46153846153848" as="sourcePoint"/>
                        <mxPoint x="750" y="138.46153846153848" as="targetPoint"/>
                    </mxGeometry>
                </mxCell>
                <mxCell id="Q3kEKYwl1XiqAEYeXQm6-44" value="" style="endArrow=none;html=1;strokeWidth=6;strokeColor=#00FFFF;" edge="1" parent="Q3kEKYwl1XiqAEYeXQm6-37">
                    <mxGeometry width="50" height="50" relative="1" as="geometry">
                        <mxPoint y="166.1538461538462" as="sourcePoint"/>
                        <mxPoint x="750" y="166.1538461538462" as="targetPoint"/>
                    </mxGeometry>
                </mxCell>
                <mxCell id="Q3kEKYwl1XiqAEYeXQm6-45" value="" style="endArrow=none;html=1;strokeWidth=6;strokeColor=#00FFFF;" edge="1" parent="Q3kEKYwl1XiqAEYeXQm6-37">
                    <mxGeometry width="50" height="50" relative="1" as="geometry">
                        <mxPoint y="193.84615384615387" as="sourcePoint"/>
                        <mxPoint x="750" y="193.84615384615387" as="targetPoint"/>
                    </mxGeometry>
                </mxCell>
                <mxCell id="Q3kEKYwl1XiqAEYeXQm6-46" value="" style="group" vertex="1" connectable="0" parent="Q3kEKYwl1XiqAEYeXQm6-73">
                    <mxGeometry y="11.53846153846154" width="750" height="193.84615384615387" as="geometry"/>
                </mxCell>
                <mxCell id="Q3kEKYwl1XiqAEYeXQm6-47" value="" style="endArrow=none;html=1;strokeWidth=6;strokeColor=#0000FF;" edge="1" parent="Q3kEKYwl1XiqAEYeXQm6-46">
                    <mxGeometry width="50" height="50" relative="1" as="geometry">
                        <mxPoint as="sourcePoint"/>
                        <mxPoint x="750" as="targetPoint"/>
                    </mxGeometry>
                </mxCell>
                <mxCell id="Q3kEKYwl1XiqAEYeXQm6-48" value="" style="endArrow=none;html=1;strokeWidth=6;strokeColor=#0000FF;" edge="1" parent="Q3kEKYwl1XiqAEYeXQm6-46">
                    <mxGeometry width="50" height="50" relative="1" as="geometry">
                        <mxPoint y="27.692307692307693" as="sourcePoint"/>
                        <mxPoint x="750" y="27.692307692307693" as="targetPoint"/>
                    </mxGeometry>
                </mxCell>
                <mxCell id="Q3kEKYwl1XiqAEYeXQm6-49" value="" style="endArrow=none;html=1;strokeWidth=6;strokeColor=#0000FF;" edge="1" parent="Q3kEKYwl1XiqAEYeXQm6-46">
                    <mxGeometry width="50" height="50" relative="1" as="geometry">
                        <mxPoint y="55.38461538461539" as="sourcePoint"/>
                        <mxPoint x="750" y="55.38461538461539" as="targetPoint"/>
                    </mxGeometry>
                </mxCell>
                <mxCell id="Q3kEKYwl1XiqAEYeXQm6-50" value="" style="endArrow=none;html=1;strokeWidth=6;strokeColor=#0000FF;" edge="1" parent="Q3kEKYwl1XiqAEYeXQm6-46">
                    <mxGeometry width="50" height="50" relative="1" as="geometry">
                        <mxPoint y="83.0769230769231" as="sourcePoint"/>
                        <mxPoint x="750" y="83.0769230769231" as="targetPoint"/>
                    </mxGeometry>
                </mxCell>
                <mxCell id="Q3kEKYwl1XiqAEYeXQm6-51" value="" style="endArrow=none;html=1;strokeWidth=6;strokeColor=#0000FF;" edge="1" parent="Q3kEKYwl1XiqAEYeXQm6-46">
                    <mxGeometry width="50" height="50" relative="1" as="geometry">
                        <mxPoint y="110.76923076923077" as="sourcePoint"/>
                        <mxPoint x="750" y="110.76923076923077" as="targetPoint"/>
                    </mxGeometry>
                </mxCell>
                <mxCell id="Q3kEKYwl1XiqAEYeXQm6-52" value="" style="endArrow=none;html=1;strokeWidth=6;strokeColor=#0000FF;" edge="1" parent="Q3kEKYwl1XiqAEYeXQm6-46">
                    <mxGeometry width="50" height="50" relative="1" as="geometry">
                        <mxPoint y="138.46153846153848" as="sourcePoint"/>
                        <mxPoint x="750" y="138.46153846153848" as="targetPoint"/>
                    </mxGeometry>
                </mxCell>
                <mxCell id="Q3kEKYwl1XiqAEYeXQm6-53" value="" style="endArrow=none;html=1;strokeWidth=6;strokeColor=#0000FF;" edge="1" parent="Q3kEKYwl1XiqAEYeXQm6-46">
                    <mxGeometry width="50" height="50" relative="1" as="geometry">
                        <mxPoint y="166.1538461538462" as="sourcePoint"/>
                        <mxPoint x="750" y="166.1538461538462" as="targetPoint"/>
                    </mxGeometry>
                </mxCell>
                <mxCell id="Q3kEKYwl1XiqAEYeXQm6-54" value="" style="endArrow=none;html=1;strokeWidth=6;strokeColor=#0000FF;" edge="1" parent="Q3kEKYwl1XiqAEYeXQm6-46">
                    <mxGeometry width="50" height="50" relative="1" as="geometry">
                        <mxPoint y="193.84615384615387" as="sourcePoint"/>
                        <mxPoint x="750" y="193.84615384615387" as="targetPoint"/>
                    </mxGeometry>
                </mxCell>
                <mxCell id="Q3kEKYwl1XiqAEYeXQm6-55" value="" style="group" vertex="1" connectable="0" parent="Q3kEKYwl1XiqAEYeXQm6-73">
                    <mxGeometry y="13.846153846153847" width="750" height="193.84615384615387" as="geometry"/>
                </mxCell>
                <mxCell id="Q3kEKYwl1XiqAEYeXQm6-56" value="" style="endArrow=none;html=1;strokeWidth=6;strokeColor=#7F00FF;" edge="1" parent="Q3kEKYwl1XiqAEYeXQm6-55">
                    <mxGeometry width="50" height="50" relative="1" as="geometry">
                        <mxPoint as="sourcePoint"/>
                        <mxPoint x="750" as="targetPoint"/>
                    </mxGeometry>
                </mxCell>
                <mxCell id="Q3kEKYwl1XiqAEYeXQm6-57" value="" style="endArrow=none;html=1;strokeWidth=6;strokeColor=#7F00FF;" edge="1" parent="Q3kEKYwl1XiqAEYeXQm6-55">
                    <mxGeometry width="50" height="50" relative="1" as="geometry">
                        <mxPoint y="27.692307692307693" as="sourcePoint"/>
                        <mxPoint x="750" y="27.692307692307693" as="targetPoint"/>
                    </mxGeometry>
                </mxCell>
                <mxCell id="Q3kEKYwl1XiqAEYeXQm6-58" value="" style="endArrow=none;html=1;strokeWidth=6;strokeColor=#7F00FF;" edge="1" parent="Q3kEKYwl1XiqAEYeXQm6-55">
                    <mxGeometry width="50" height="50" relative="1" as="geometry">
                        <mxPoint y="55.38461538461539" as="sourcePoint"/>
                        <mxPoint x="750" y="55.38461538461539" as="targetPoint"/>
                    </mxGeometry>
                </mxCell>
                <mxCell id="Q3kEKYwl1XiqAEYeXQm6-59" value="" style="endArrow=none;html=1;strokeWidth=6;strokeColor=#7F00FF;" edge="1" parent="Q3kEKYwl1XiqAEYeXQm6-55">
                    <mxGeometry width="50" height="50" relative="1" as="geometry">
                        <mxPoint y="83.0769230769231" as="sourcePoint"/>
                        <mxPoint x="750" y="83.0769230769231" as="targetPoint"/>
                    </mxGeometry>
                </mxCell>
                <mxCell id="Q3kEKYwl1XiqAEYeXQm6-60" value="" style="endArrow=none;html=1;strokeWidth=6;strokeColor=#7F00FF;" edge="1" parent="Q3kEKYwl1XiqAEYeXQm6-55">
                    <mxGeometry width="50" height="50" relative="1" as="geometry">
                        <mxPoint y="110.76923076923077" as="sourcePoint"/>
                        <mxPoint x="750" y="110.76923076923077" as="targetPoint"/>
                    </mxGeometry>
                </mxCell>
                <mxCell id="Q3kEKYwl1XiqAEYeXQm6-61" value="" style="endArrow=none;html=1;strokeWidth=6;strokeColor=#7F00FF;" edge="1" parent="Q3kEKYwl1XiqAEYeXQm6-55">
                    <mxGeometry width="50" height="50" relative="1" as="geometry">
                        <mxPoint y="138.46153846153848" as="sourcePoint"/>
                        <mxPoint x="750" y="138.46153846153848" as="targetPoint"/>
                    </mxGeometry>
                </mxCell>
                <mxCell id="Q3kEKYwl1XiqAEYeXQm6-62" value="" style="endArrow=none;html=1;strokeWidth=6;strokeColor=#7F00FF;" edge="1" parent="Q3kEKYwl1XiqAEYeXQm6-55">
                    <mxGeometry width="50" height="50" relative="1" as="geometry">
                        <mxPoint y="166.1538461538462" as="sourcePoint"/>
                        <mxPoint x="750" y="166.1538461538462" as="targetPoint"/>
                    </mxGeometry>
                </mxCell>
                <mxCell id="Q3kEKYwl1XiqAEYeXQm6-63" value="" style="endArrow=none;html=1;strokeWidth=6;strokeColor=#7F00FF;" edge="1" parent="Q3kEKYwl1XiqAEYeXQm6-55">
                    <mxGeometry width="50" height="50" relative="1" as="geometry">
                        <mxPoint y="193.84615384615387" as="sourcePoint"/>
                        <mxPoint x="750" y="193.84615384615387" as="targetPoint"/>
                    </mxGeometry>
                </mxCell>
                <mxCell id="Q3kEKYwl1XiqAEYeXQm6-64" value="" style="group" vertex="1" connectable="0" parent="Q3kEKYwl1XiqAEYeXQm6-73">
                    <mxGeometry y="16.153846153846157" width="750" height="193.84615384615387" as="geometry"/>
                </mxCell>
                <mxCell id="Q3kEKYwl1XiqAEYeXQm6-65" value="" style="endArrow=none;html=1;strokeWidth=6;strokeColor=#FF8000;" edge="1" parent="Q3kEKYwl1XiqAEYeXQm6-64">
                    <mxGeometry width="50" height="50" relative="1" as="geometry">
                        <mxPoint as="sourcePoint"/>
                        <mxPoint x="750" as="targetPoint"/>
                    </mxGeometry>
                </mxCell>
                <mxCell id="Q3kEKYwl1XiqAEYeXQm6-66" value="" style="endArrow=none;html=1;strokeWidth=6;strokeColor=#FF8000;" edge="1" parent="Q3kEKYwl1XiqAEYeXQm6-64">
                    <mxGeometry width="50" height="50" relative="1" as="geometry">
                        <mxPoint y="27.692307692307693" as="sourcePoint"/>
                        <mxPoint x="750" y="27.692307692307693" as="targetPoint"/>
                    </mxGeometry>
                </mxCell>
                <mxCell id="Q3kEKYwl1XiqAEYeXQm6-67" value="" style="endArrow=none;html=1;strokeWidth=6;strokeColor=#FF8000;" edge="1" parent="Q3kEKYwl1XiqAEYeXQm6-64">
                    <mxGeometry width="50" height="50" relative="1" as="geometry">
                        <mxPoint y="55.38461538461539" as="sourcePoint"/>
                        <mxPoint x="750" y="55.38461538461539" as="targetPoint"/>
                    </mxGeometry>
                </mxCell>
                <mxCell id="Q3kEKYwl1XiqAEYeXQm6-68" value="" style="endArrow=none;html=1;strokeWidth=6;strokeColor=#FF8000;" edge="1" parent="Q3kEKYwl1XiqAEYeXQm6-64">
                    <mxGeometry width="50" height="50" relative="1" as="geometry">
                        <mxPoint y="83.0769230769231" as="sourcePoint"/>
                        <mxPoint x="750" y="83.0769230769231" as="targetPoint"/>
                    </mxGeometry>
                </mxCell>
                <mxCell id="Q3kEKYwl1XiqAEYeXQm6-69" value="" style="endArrow=none;html=1;strokeWidth=6;strokeColor=#FF8000;" edge="1" parent="Q3kEKYwl1XiqAEYeXQm6-64">
                    <mxGeometry width="50" height="50" relative="1" as="geometry">
                        <mxPoint y="110.76923076923077" as="sourcePoint"/>
                        <mxPoint x="750" y="110.76923076923077" as="targetPoint"/>
                    </mxGeometry>
                </mxCell>
                <mxCell id="Q3kEKYwl1XiqAEYeXQm6-70" value="" style="endArrow=none;html=1;strokeWidth=6;strokeColor=#FF8000;" edge="1" parent="Q3kEKYwl1XiqAEYeXQm6-64">
                    <mxGeometry width="50" height="50" relative="1" as="geometry">
                        <mxPoint y="138.46153846153848" as="sourcePoint"/>
                        <mxPoint x="750" y="138.46153846153848" as="targetPoint"/>
                    </mxGeometry>
                </mxCell>
                <mxCell id="Q3kEKYwl1XiqAEYeXQm6-71" value="" style="endArrow=none;html=1;strokeWidth=6;strokeColor=#FF8000;" edge="1" parent="Q3kEKYwl1XiqAEYeXQm6-64">
                    <mxGeometry width="50" height="50" relative="1" as="geometry">
                        <mxPoint y="166.1538461538462" as="sourcePoint"/>
                        <mxPoint x="750" y="166.1538461538462" as="targetPoint"/>
                    </mxGeometry>
                </mxCell>
                <mxCell id="Q3kEKYwl1XiqAEYeXQm6-72" value="" style="endArrow=none;html=1;strokeWidth=6;strokeColor=#FF8000;" edge="1" parent="Q3kEKYwl1XiqAEYeXQm6-64">
                    <mxGeometry width="50" height="50" relative="1" as="geometry">
                        <mxPoint y="193.84615384615387" as="sourcePoint"/>
                        <mxPoint x="750" y="193.84615384615387" as="targetPoint"/>
                    </mxGeometry>
                </mxCell>
            </root>
        </mxGraphModel>
    </diagram>
</mxfile>